<?xml version="1.0" encoding="UTF-8"?>
<svg width="156px" height="42px" viewBox="0 0 156 42" version="1.1" xmlns="http://www.w3.org/2000/svg" xmlns:xlink="http://www.w3.org/1999/xlink">
    <!-- Generator: sketchtool 46.2 (44496) - http://www.bohemiancoding.com/sketch -->
    <title>C498EC11-519A-4D03-94B2-BC13C2877742</title>
    <desc>Created with sketchtool.</desc>
    <defs></defs>
    <g id="CORE" stroke="none" stroke-width="1" fill="none" fill-rule="evenodd">
        <g id="PI-DIGITAL-LOGOS-/-Assets" transform="translate(-180.000000, -666.000000)" fill-rule="nonzero">
            <g id="PI_NOROUNDEL_LEFT.svg-Copy-4" transform="translate(181.000000, 667.000000)">
                <g id="Group-2">
                    <path d="M7.71285855,22.5829596 C9.50654658,22.2780269 10.5648225,21.9192825 10.5648225,21.9192825 C9.54242034,21.6860987 8.62763945,21.5426009 7.73079543,21.4170404 C8.1254068,20.7533632 8.46620752,20.1973094 8.87875577,19.5874439 C8.87875577,19.5874439 7.64111103,20.1076233 6.72633013,20.8071749 C6.72633013,20.8071749 6.31378188,20.0179372 5.86535987,19.3183857 C5.86535987,19.3183857 5.65011731,20 5.43487474,21.1659193 C4.19723,21.0762332 3.40800727,21.0762332 3.40800727,21.0762332 C4.03579808,21.7040359 4.71739953,22.2600897 4.71739953,22.2600897 C3.60531295,23.1210762 2.88783774,23.9820628 2.88783774,23.9820628 C3.64118671,23.6950673 4.3765988,23.5515695 5.12994778,23.3363229 C5.04026338,24.1793722 5.00438962,25.0762332 5.00438962,26.0807175 C5.00438962,26.0807175 5.52455915,25.0044843 6.40346628,23.5156951 C7.56936351,24.3766816 8.77113449,25.1479821 8.77113449,25.1479821 C8.41239688,24.1434978 8.03572239,23.2825112 7.71285855,22.5829596" id="Shape" fill="#FDB913"></path>
                    <path d="M6.74426701,11.7309417 C9.20161962,11.7130045 10.6903807,11.4439462 10.6903807,11.4439462 C9.3989253,10.9058296 8.2150912,10.4753363 7.06713086,10.1165919 C7.74873231,9.2735426 8.32271248,8.59192825 9.04018769,7.85650224 C9.04018769,7.85650224 7.28237342,8.30493274 5.90123363,9.05829596 C5.90123363,9.05829596 5.56043291,7.87443946 5.12994778,6.8161435 C5.12994778,6.8161435 4.66358889,7.7309417 4.08960872,9.2735426 C2.45735261,8.86098655 1.43495043,8.69955157 1.43495043,8.69955157 C2.11655188,9.68609865 2.88783774,10.6367713 2.88783774,10.6367713 C1.20177098,11.6053812 0.053810641,12.6098655 0.053810641,12.6098655 C1.13002346,12.3766816 2.11655188,12.3408072 3.17482782,12.1973094 C2.85196397,13.3452915 2.56497389,14.5650224 2.34973133,15.9641256 C2.34973133,15.9641256 3.31832286,14.6008969 4.82502081,12.7174888 C6.15234996,14.1524664 7.55142663,15.4977578 7.55142663,15.4977578 C7.3003103,14.044843 7.01332021,12.7533632 6.74426701,11.7309417" id="Shape" fill="#FDB913"></path>
                    <path d="M16.8068569,6.97757848 C18.134186,6.92376682 18.9413456,6.76233184 18.9413456,6.76233184 C18.2238704,6.49327354 17.5781427,6.27802691 16.9503519,6.09865471 C17.3090895,5.632287 17.6140165,5.25560538 17.9727541,4.84304933 C17.9727541,4.84304933 17.0220994,5.11210762 16.2866874,5.5426009 C16.2866874,5.5426009 16.0714448,4.89686099 15.8382653,4.34080717 C15.8382653,4.34080717 15.6050859,4.84304933 15.3180958,5.68609865 C14.4391887,5.48878924 13.8652085,5.41704036 13.8652085,5.41704036 C14.241883,5.93721973 14.6723681,6.43946188 14.6723681,6.43946188 C13.7755241,6.9955157 13.1656702,7.55156951 13.1656702,7.55156951 C13.7396503,7.40807175 14.2777568,7.37219731 14.8517369,7.28251121 C14.690305,7.9103139 14.5647468,8.57399103 14.4571256,9.34529148 C14.4571256,9.34529148 14.9593582,8.59192825 15.7485809,7.55156951 C16.483993,8.32286996 17.2552789,9.0044843 17.2552789,9.0044843 C17.1476576,8.21524664 16.9682888,7.53363229 16.8068569,6.97757848" id="Shape" fill="#FDB913"></path>
                    <path d="M25.5600545,16.3049327 C25.4703701,16.8251121 25.3627488,17.2556054 25.2551275,17.5964126 C25.1116325,18.0986547 24.9860743,18.367713 24.9860743,18.367713 C24.734958,18.8878924 24.3762204,19.4080717 24.0174828,19.8026906 C23.7484296,20.0896861 23.5511239,20.3049327 23.1385756,20.6636771 C23.0130175,20.7713004 22.9053962,20.8609865 22.779838,20.9506726 C22.1699841,21.4349776 21.5421933,21.793722 20.98615,22.0986547 C20.6632862,22.2780269 20.3583592,22.4215247 20.0713691,22.5470852 C19.6767577,22.7443946 19.3538939,22.8878924 19.1386513,23.0134529 C18.8516612,23.1569507 18.6184818,23.4439462 18.5646712,23.7668161 C18.5287974,24.1255605 18.74404,24.4663677 18.9951563,24.7174888 C19.1745251,24.9147982 19.7664421,25.2556054 19.9637478,25.6681614 C20.0713691,25.9013453 20.089306,26.1883408 19.8023159,26.4573991 L19.6946946,26.5470852 C19.2642095,26.8699552 18.9592825,27.1210762 18.7619768,27.264574 C18.4929236,27.4439462 18.4211761,27.5695067 18.3853024,27.7488789 C18.3673655,28.1793722 18.6543556,28.3766816 18.9592825,28.6278027 C19.3538939,28.9506726 20.1072429,29.5067265 21.0937713,29.9013453 C21.7036252,30.1345291 22.4031636,30.3139013 23.1565125,30.3497758 C23.3000076,30.3497758 23.4435026,30.3497758 23.6049345,30.3497758 C24.1609778,30.3497758 23.6587452,30.6547085 23.6587452,30.6547085 C20.5018542,32.2690583 17.8292591,29.9372197 17.093847,29.2556054 C16.9682888,29.1300448 16.8786044,29.0762332 16.8786044,29.0762332 C16.3225611,28.7174888 15.6230228,29.0762332 15.6230228,29.0762332 L15.5692121,29.1121076 C13.2374177,30.1524664 10.6186332,30.7443946 7.85635359,30.7443946 C6.31378188,30.7443946 4.75327329,30.5470852 3.31832286,30.206278 L3.31832286,30.206278 C3.22863846,30.1883408 3.13895406,30.1704036 3.04926966,30.1704036 C2.33179444,30.1704036 1.75781427,30.7443946 1.75781427,31.4618834 C1.75781427,31.7488789 1.86543556,32.0358744 2.02686748,32.2511211 L2.06274124,32.3049327 C5.75773859,36.9147982 11.4616665,39.8565022 17.8471959,39.8565022 C28.9859986,39.8565022 38.0082495,30.9058296 38.0082495,19.838565 C38.0082495,10.0986547 30.9949292,1.97309417 21.6856883,0.197309417 L21.6498146,0.197309417 C21.5780671,0.179372197 21.739499,0.215246637 21.6498146,0.197309417 C20.6094755,0.0538116592 20.089306,0.753363229 20.089306,1.48878924 C20.089306,1.86547085 20.2507379,2.20627803 20.5018542,2.43946188 L20.537728,2.47533632 C23.7304927,5.47085202 25.7035495,9.61434978 25.7035495,14.1704036 C25.7035495,14.9058296 25.6497389,15.6233184 25.5600545,16.32287 L25.5600545,16.3049327 Z M27.2102475,23.2286996 C26.1519715,22.6188341 26.0622871,21.5246637 26.0622871,21.5246637 C26.0622871,21.5246637 25.936729,20.0358744 26.3672141,21.0044843 C26.7976992,21.9730942 27.6586695,22.4215247 27.6586695,22.4215247 L27.6586695,22.4215247 C27.6586695,22.4215247 28.4658291,22.941704 29.524105,22.8520179 C30.582381,22.7623318 29.237115,23.3721973 29.237115,23.3721973 C29.237115,23.3721973 28.2505865,23.838565 27.2102475,23.2286996 L27.2102475,23.2286996 Z" id="Shape" fill="#FFFFFF"></path>
                </g>
                <g id="Group" transform="translate(48.000000, 11.000000)" fill="#FFFFFF">
                    <path d="M80.379645,0.426008969 C80.1330129,0.381165919 79.707012,0.358744395 79.3258533,0.358744395 C78.9446946,0.358744395 78.5411148,0.381165919 78.2720616,0.426008969 C78.0030084,0.470852018 77.9357451,0.582959641 77.9357451,0.784753363 L77.9357451,16.1883408 C77.9357451,16.367713 78.0030084,16.5022422 78.2720616,16.5470852 C78.5411148,16.5919283 78.9446946,16.6143498 79.3258533,16.6143498 C79.707012,16.6143498 80.1105918,16.5919283 80.379645,16.5470852 C80.6486983,16.5022422 80.7159616,16.3901345 80.7159616,16.1883408 L80.7159616,0.784753363 C80.6935405,0.582959641 80.6486983,0.470852018 80.379645,0.426008969 Z" id="Shape"></path>
                    <path d="M4.14790358,0.358744395 C2.21968894,0.358744395 0.941686218,0.582959641 0.426000908,0.67264574 C0.156947703,0.717488789 0.0896844017,0.852017937 0.0896844017,1.03139013 L0.0896844017,16.1883408 C0.0896844017,16.367713 0.134526603,16.5022422 0.426000908,16.5470852 C0.672633013,16.5919283 1.09863392,16.6143498 1.47979263,16.6143498 C1.86095134,16.6143498 2.26453114,16.5919283 2.53358435,16.5470852 C2.80263755,16.5022422 2.86990086,16.3901345 2.86990086,16.1883408 L2.86990086,11.6816143 C3.25105956,11.7264574 3.65463937,11.7488789 4.17032468,11.7488789 C7.53348974,11.7488789 10.4482328,10.1121076 10.4482328,5.87443946 C10.4258117,2.21973094 7.69043745,0.358744395 4.14790358,0.358744395 Z M4.30485128,9.61883408 C3.85642927,9.61883408 3.54253387,9.61883408 2.86990086,9.43946188 L2.86990086,2.57847534 C3.40800727,2.48878924 3.90127148,2.46636771 4.30485128,2.46636771 C6.41243472,2.46636771 7.64559525,3.87892377 7.64559525,5.94170404 C7.64559525,8.11659193 6.52454023,9.61883408 4.30485128,9.61883408 Z" id="Shape"></path>
                    <path d="M51.9721108,4.57399103 C51.7254787,4.52914798 51.3667411,4.50672646 50.9855824,4.50672646 C50.6044237,4.50672646 50.2681072,4.52914798 49.999054,4.57399103 C49.7300008,4.61883408 49.6627375,4.7309417 49.6627375,4.93273543 L49.6627375,16.1883408 C49.6627375,16.367713 49.7300008,16.5022422 49.999054,16.5470852 C50.2456861,16.5919283 50.6044237,16.6143498 50.9855824,16.6143498 C51.3667411,16.6143498 51.7030576,16.5919283 51.9721108,16.5470852 C52.241164,16.5022422 52.3084273,16.3901345 52.3084273,16.1883408 L52.3084273,4.93273543 C52.2860062,4.75336323 52.241164,4.61883408 51.9721108,4.57399103 Z" id="Shape"></path>
                    <ellipse id="Oval" cx="50.9855824" cy="1.65919283" rx="1.47979263" ry="1.47982063"></ellipse>
                    <path d="M59.5056005,4.30493274 C55.8733823,4.30493274 54.0124309,7.10762332 54.0124309,10.5381166 C54.0124309,14.2376682 56.1200144,16.7488789 59.7970749,16.7488789 C61.6804473,16.7488789 63.2050821,16.0089686 64.2812949,14.8430493 C64.4830848,14.6412556 64.4158215,14.3497758 64.2364527,14.1704036 C64.0122417,13.8789238 63.6086619,13.4977578 63.3396087,13.3183857 C63.1602399,13.1838565 62.9360289,13.206278 62.6893968,13.4304933 C61.8149739,14.1255605 60.9629721,14.529148 59.8419171,14.529148 C57.7567547,14.529148 56.8374896,13.0269058 56.6805419,11.3452915 L64.1916105,11.3452915 C64.6624536,11.3452915 64.9090857,11.1210762 64.9090857,10.6053812 C64.9090857,7.13004484 63.5189775,4.30493274 59.5056005,4.30493274 Z M56.6581208,9.52914798 C56.8150685,7.53363229 57.7119125,6.23318386 59.5056005,6.23318386 C61.4113941,6.23318386 62.2633959,7.66816143 62.3530803,9.52914798 L56.6581208,9.52914798 Z" id="Shape"></path>
                    <path d="M24.2372096,4.30493274 C20.6049913,4.30493274 18.74404,7.10762332 18.74404,10.5381166 C18.74404,14.2376682 20.8516234,16.7488789 24.5286839,16.7488789 C26.4120563,16.7488789 27.9366911,16.0089686 29.012904,14.8430493 C29.2146939,14.6412556 29.1474306,14.3497758 28.9680618,14.1704036 C28.7438508,13.8789238 28.3402709,13.4977578 28.0712177,13.3183857 C27.8918489,13.1838565 27.6676379,13.206278 27.4210058,13.4304933 C26.5465829,14.1255605 25.6945811,14.529148 24.5735261,14.529148 C22.4883637,14.529148 21.5690986,13.0269058 21.4121509,11.3452915 L28.9232196,11.3452915 C29.3940627,11.3452915 29.6406948,11.1210762 29.6406948,10.6053812 C29.6406948,7.13004484 28.2281654,4.30493274 24.2372096,4.30493274 Z M21.3673087,9.52914798 C21.5242564,7.53363229 22.4211004,6.23318386 24.2147885,6.23318386 C26.120582,6.23318386 26.9725838,7.66816143 27.0622682,9.52914798 L21.3673087,9.52914798 Z" id="Shape"></path>
                    <path d="M18.6095134,4.88789238 C18.5646712,4.37219731 18.1162491,4.30493274 17.7799326,4.30493274 C16.4346666,4.30493274 15.0669795,5.42600897 14.4391887,6.7264574 C14.3943465,5.76233184 14.1028722,4.52914798 13.0939227,4.52914798 C12.7127639,4.52914798 12.4212896,4.55156951 12.1298153,4.59641256 C11.9280254,4.64125561 11.7486566,4.68609865 11.7934988,5.0896861 C11.8831832,5.91928251 11.9056043,6.50224215 11.9056043,7.44394619 L11.9056043,16.1883408 C11.9056043,16.367713 11.9504465,16.5022422 12.2419208,16.5470852 C12.510974,16.5919283 12.8248694,16.6143498 13.2060282,16.6143498 C13.5871869,16.6143498 13.9459245,16.5919283 14.2149777,16.5470852 C14.4840309,16.5022422 14.5512942,16.3901345 14.5512942,16.1883408 L14.5512942,10.6726457 C14.5512942,9.01345291 15.0445584,8.04932735 15.6947703,7.48878924 C16.6364565,6.68161435 17.6678271,6.74887892 18.2059336,6.74887892 C18.4077235,6.74887892 18.5422501,6.70403587 18.6095134,6.367713 C18.6543556,5.87443946 18.6319345,5.31390135 18.6095134,4.88789238 Z" id="Shape"></path>
                    <path d="M72.4425755,4.30493274 C71.0973095,4.30493274 69.7296223,5.42600897 69.1018315,6.7264574 C69.0569893,5.76233184 68.765515,4.52914798 67.7565655,4.52914798 C67.3754068,4.52914798 67.0839325,4.55156951 66.7924582,4.59641256 C66.5906683,4.64125561 66.4112995,4.68609865 66.4561417,5.0896861 C66.5458261,5.91928251 66.5682472,6.50224215 66.5682472,7.44394619 L66.5682472,16.1883408 C66.5682472,16.367713 66.6355105,16.5022422 66.9045637,16.5470852 C67.1736169,16.5919283 67.4875123,16.6143498 67.868671,16.6143498 C68.2498297,16.6143498 68.6085673,16.5919283 68.8776205,16.5470852 C69.1466737,16.5022422 69.213937,16.3901345 69.213937,16.1883408 L69.213937,10.6726457 C69.213937,9.01345291 69.7072012,8.04932735 70.3574132,7.48878924 C71.2990994,6.68161435 72.33047,6.74887892 72.8685764,6.74887892 C73.0703663,6.74887892 73.2048929,6.70403587 73.2721562,6.367713 C73.3618406,5.89686099 73.3618406,5.33632287 73.3169984,4.88789238 C73.227314,4.37219731 72.778892,4.30493274 72.4425755,4.30493274 Z" id="Shape"></path>
                    <path d="M44.1695678,4.30493274 C42.8018807,4.30493274 41.4117725,5 40.4476652,6.32286996 C39.954401,5.06726457 38.9230303,4.30493274 37.1966056,4.30493274 C35.9186029,4.30493274 34.595758,4.9103139 33.6540717,6.05381166 C33.5195451,5.2690583 33.1608075,4.50672646 32.376069,4.50672646 C31.9949103,4.50672646 31.703436,4.52914798 31.4119617,4.57399103 C31.2101718,4.61883408 31.030803,4.66367713 31.0756452,5.06726457 C31.1653296,5.89686099 31.1877507,6.47982063 31.1877507,7.42152466 L31.1877507,16.1659193 C31.1877507,16.3452915 31.2325929,16.4798206 31.5240672,16.5246637 C31.7706993,16.5695067 32.1070158,16.5919283 32.4881745,16.5919283 C32.8693332,16.5919283 33.2280708,16.5695067 33.497124,16.5246637 C33.7661772,16.4798206 33.8334406,16.367713 33.8334406,16.1659193 L33.8334406,9.86547085 C33.8334406,7.75784753 34.819969,6.47982063 36.2100772,6.47982063 C37.5329221,6.47982063 38.2279762,7.44394619 38.2279762,9.01345291 L38.2279762,16.1434978 C38.2279762,16.32287 38.2728184,16.4573991 38.5642927,16.5022422 C38.8109248,16.5470852 39.1696625,16.5695067 39.5508212,16.5695067 C39.9319799,16.5695067 40.2682964,16.5470852 40.5373496,16.5022422 C40.8064028,16.4573991 40.8736661,16.3452915 40.8736661,16.1434978 L40.8736661,9.84304933 C40.8736661,7.73542601 41.8601945,6.4573991 43.2503027,6.4573991 C44.5731477,6.4573991 45.2682018,7.42152466 45.2682018,8.99103139 L45.2682018,16.1210762 C45.2682018,16.3004484 45.313044,16.4349776 45.6045183,16.4798206 C45.8511504,16.5246637 46.209888,16.5470852 46.5910467,16.5470852 C46.9722054,16.5470852 47.3085219,16.5246637 47.5775751,16.4798206 C47.8466283,16.4349776 47.9138916,16.32287 47.9138916,16.1210762 L47.9138916,8.43049327 C47.8017861,6.00896861 46.7255733,4.30493274 44.1695678,4.30493274 Z" id="Shape"></path>
                    <path d="M88.6081889,4.30493274 C87.3526073,4.30493274 86.1418679,4.93273543 85.1777605,6.03139013 C85.0432339,5.24663677 84.6844963,4.50672646 83.8997578,4.50672646 C83.5185991,4.50672646 83.2271248,4.52914798 82.9356505,4.57399103 C82.7338606,4.61883408 82.5544918,4.66367713 82.599334,5.06726457 C82.6890184,5.89686099 82.7114395,6.47982063 82.7114395,7.42152466 L82.7114395,16.1659193 C82.7114395,16.3452915 82.7562817,16.4798206 83.047756,16.5246637 C83.2943881,16.5695067 83.6307046,16.5919283 84.0118633,16.5919283 C84.393022,16.5919283 84.7517596,16.5695067 85.0208128,16.5246637 C85.289866,16.4798206 85.3571293,16.367713 85.3571293,16.1659193 L85.3571293,9.77578475 C85.3571293,7.66816143 86.5230266,6.47982063 87.8458715,6.47982063 C89.1687164,6.47982063 89.975876,7.44394619 89.975876,9.01345291 L89.975876,16.1434978 C89.975876,16.32287 90.0431393,16.4573991 90.3121925,16.5022422 C90.5588246,16.5470852 90.9175622,16.5695067 91.298721,16.5695067 C91.6798797,16.5695067 92.0161962,16.5470852 92.2852494,16.5022422 C92.5543026,16.4573991 92.6215659,16.3452915 92.6215659,16.1434978 L92.6215659,8.4529148 C92.5543026,6.00896861 91.1866155,4.30493274 88.6081889,4.30493274 Z" id="Shape"></path>
                    <path d="M100.424109,4.30493274 C99.1685272,4.30493274 97.9577878,4.93273543 96.9936805,6.03139013 C96.8591539,5.24663677 96.5004163,4.50672646 95.7156777,4.50672646 C95.334519,4.50672646 95.0430447,4.52914798 94.7515704,4.57399103 C94.5497805,4.61883408 94.3704117,4.66367713 94.4152539,5.06726457 C94.5049383,5.89686099 94.5273594,6.47982063 94.5273594,7.42152466 L94.5273594,16.1659193 C94.5273594,16.3452915 94.5722016,16.4798206 94.8636759,16.5246637 C95.110308,16.5695067 95.4466245,16.5919283 95.8277832,16.5919283 C96.208942,16.5919283 96.5676796,16.5695067 96.8367328,16.5246637 C97.105786,16.4798206 97.1730493,16.367713 97.1730493,16.1659193 L97.1730493,9.77578475 C97.1730493,7.66816143 98.3389465,6.47982063 99.6617914,6.47982063 C100.984636,6.47982063 101.791796,7.44394619 101.791796,9.01345291 L101.791796,16.1434978 C101.791796,16.32287 101.836638,16.4573991 102.128112,16.5022422 C102.374745,16.5470852 102.711061,16.5695067 103.09222,16.5695067 C103.473378,16.5695067 103.787274,16.5470852 104.056327,16.5022422 C104.32538,16.4573991 104.392644,16.3452915 104.392644,16.1434978 L104.392644,8.4529148 C104.32538,6.00896861 102.980114,4.30493274 100.424109,4.30493274 Z" id="Shape"></path>
                </g>
            </g>
        </g>
    </g>
</svg>